<svg id="Layer_1" data-name="Layer 1" xmlns="http://www.w3.org/2000/svg" viewBox="0 0 184.32 44.55"><title>woo</title><path d="M48.5,32.74c3,.33,6.23,3,5.34,4.26h-18L36,49.78c.05,3.27-2.43,3.88-6.51,4.26-2,.18-3.37-.19-3.37-1.87L26.23,37H16.07l-6.5.28-.84-3,8.89.37,28.73.05ZM24.92,11.22h13c7.86,0,12.73,2.71,12.73,9s-4.87,9-12.73,9h-13c-8.33,0-13.15-2.72-13.15-9S16.59,11.22,24.92,11.22ZM32.69,26.8c4.58,0,8.14-2.29,8.14-6.6s-3.56-6.64-8.14-6.64H29.6c-4.4,0-8,2.2-8,6.64s3.56,6.6,8,6.6Z" transform="translate(-8.73 -9.53)"/><path d="M81.44,29c-2.06,3.61-6.27,5.57-11.51,5.57C62.4,34.52,57,30.5,57,23.34V22.12c0-7.21,5.39-11.23,12.92-11.23,5.71,0,9.87,2.1,11.79,6l3.75.05,3.37-.05L88.7,9.53a35.49,35.49,0,0,1,9.12,1.12c.89.24,1.64.94,1.59,1.5s-.56,1.17-.79,2.11l-.1,10.06.19,12.5c.05,3.08-2.9,4.16-7,4.25-2,0-2.9-.6-2.9-1.63V28.72l-3.28.05ZM69.79,49.69H92L94.36,47c3,.23,6.36,3.56,5.71,5H69.74c-1.17.89-4.12,1.4-6.55,1.36-2.11-.05-3.23-.52-3.23-2.16V43.65l-.14-6a29.42,29.42,0,0,1,9,.89,2.23,2.23,0,0,1,1.5,1.31,1.67,1.67,0,0,1-.56,1.59ZM66.28,23.1c0,5.62.89,8.8,3.65,8.8s3.65-3.18,3.65-8.8v-.75c0-5.66-.89-8.79-3.65-8.79s-3.65,3.13-3.65,8.79Zm16.24,3,3,0,3.37,0V19.55H85.56l-3,.14a13.43,13.43,0,0,1,.24,2.43v1.22A12.57,12.57,0,0,1,82.52,26.1Z" transform="translate(-8.73 -9.53)"/><path d="M103.43,50.29c-.33-.28-.42-.56-.23-.84,5.19-8.42,8-17.31,9.82-34l-.14-4.4a36.61,36.61,0,0,1,8.29,1.07c1.78.47,2.48,1.27,2.57,2s-.28,1.12-.65,1.92a94.6,94.6,0,0,1-3,11.84c4.45,4.21,9.22,10.06,11.42,14.41a5.61,5.61,0,0,1-1.35,5.94,5.44,5.44,0,0,1-5.43.89c-1.13-.46-1.64-1.26-1.83-2.8a59.65,59.65,0,0,0-4-15.21c-3.19,7.86-7.63,13.47-14.14,19.37A1,1,0,0,1,103.43,50.29ZM126.74,29l-.61-3.14h5.38l4.07-.09V9.53A29.4,29.4,0,0,1,144,10.65c.89.29,1.64.94,1.6,1.5s-.57,1.17-.8,2.11l-.23,17.22.18,17.74c.05,3.09-2.2,3.88-6.27,4.26-2,.18-2.9-.14-2.9-1.17V28.44l-3.13.14Z" transform="translate(-8.73 -9.53)"/><path d="M174.09,10.09c2.81.61,5.15,3.14,4.68,4.78H169.5a28.85,28.85,0,0,1-3,6.5,40.6,40.6,0,0,1,11.18,6.37c1.55,1.45.94,4.4-.23,5.66a4,4,0,0,1-3.88,1,2.84,2.84,0,0,1-2.11-1.73,33.32,33.32,0,0,0-6.6-8.84c-3.74,5-8.75,8.61-13.66,11.65-.52.33-1,0-1.32-.42a.61.61,0,0,1,0-.85c4.64-5.52,8.1-10.9,9.93-19.32H157.2l-6.18.32-.66-2.94,8,.37h13.34ZM161.73,40.47l-7.39.28-.94-2.81,7.73.28,20.54-.42,2-2.2a40.31,40.31,0,0,1,7.16,1.31c1,.28,1.63.75,1.78,1.4a2.73,2.73,0,0,1-.57,1.83V50.48c0,1.69-2.57,3.09-6.17,3.28-2.34.14-3.56-.33-3.56-1.59V40.09Zm21-18.3-3.09.14-4.87.42-.65-3.09,4.21.05,4.35-.14V9.63a31.68,31.68,0,0,1,8.75,1.12c.89.28,1.64.93,1.59,1.5s-.56,1.17-.79,2.1l-.24,8,.19,8c0,3.09-4.3,3.56-6.74,3.56-1.78,0-2.71-.42-2.71-1.4Z" transform="translate(-8.73 -9.53)"/></svg>